<svg version="1.1" id="Layer_1" xmlns="http://www.w3.org/2000/svg" xmlns:xlink="http://www.w3.org/1999/xlink" x="0px" y="0px"
	 width="100%" viewBox="0 0 1024 1024" enable-background="new 0 0 1024 1024" xml:space="preserve">
<path fill="#FDFDFD" opacity="1.000000" stroke="none" 
	d="
M546.000000,1025.000000 
	C364.000000,1025.000000 182.500000,1025.000000 1.000000,1025.000000 
	C1.000000,683.666687 1.000000,342.333344 1.000000,1.000000 
	C342.333344,1.000000 683.666687,1.000000 1025.000000,1.000000 
	C1025.000000,342.333344 1025.000000,683.666687 1025.000000,1025.000000 
	C865.500000,1025.000000 706.000000,1025.000000 546.000000,1025.000000 
M513.182861,952.039856 
	C523.499573,951.728943 533.830078,951.657288 544.130615,951.065002 
	C584.971924,948.716980 624.749512,940.593445 663.123962,926.653503 
	C739.325562,898.972107 804.444885,854.968079 856.776245,792.627319 
	C890.042603,752.998230 916.026062,709.101074 933.903442,660.523804 
	C946.852966,625.336670 955.193176,589.051147 957.869202,551.607361 
	C958.803894,538.529663 958.652466,525.374329 959.218079,511.305725 
	C958.755005,497.329529 958.828735,483.310883 957.726929,469.385254 
	C954.584106,429.663940 946.062683,391.066803 932.394531,353.607330 
	C914.938721,305.767273 890.155823,261.940430 858.534729,222.198502 
	C837.741211,196.064850 813.185181,173.475189 786.661377,153.086502 
	C742.153564,118.873497 692.787354,94.240341 638.993652,78.557579 
	C609.517639,69.964317 579.396484,64.294701 548.705566,62.367859 
	C536.792786,61.619938 524.809570,61.993618 512.019653,61.490314 
	C483.633575,61.239521 455.487915,63.714027 427.566284,68.838554 
	C382.843964,77.046562 340.343903,91.686874 300.057220,112.760368 
	C243.240433,142.480560 195.110641,182.447678 156.560471,233.861740 
	C120.785889,281.574036 94.163567,333.716766 78.925720,391.526154 
	C69.792419,426.176056 65.518768,461.475403 64.406715,497.207123 
	C64.253456,502.131622 64.867378,507.079956 65.007812,512.944580 
	C66.666557,534.820312 67.077042,556.878357 70.238541,578.534668 
	C77.265701,626.670837 92.363815,672.340393 115.546165,715.280579 
	C146.290543,772.227905 186.847092,820.714783 238.513794,859.859680 
	C271.501038,884.852112 307.180756,904.987976 345.549927,920.424988 
	C377.359650,933.223022 410.321136,941.693848 444.191345,946.771301 
	C466.769806,950.156067 489.444672,952.236755 513.182861,952.039856 
M115.268051,215.869186 
	C111.442619,219.143478 111.139603,223.622925 111.976395,227.942001 
	C113.090805,233.693954 118.744560,237.793839 124.662842,237.992554 
	C129.249329,238.146576 133.824341,234.933151 135.268066,230.543594 
	C136.596603,226.504227 133.668015,216.587204 130.495590,214.382736 
	C126.337921,211.493591 120.197197,211.947510 115.268051,215.869186 
z"/>
<path fill="#E43F3C" opacity="1.000000" stroke="none" 
	d="
M512.858398,61.856369 
	C524.809570,61.993618 536.792786,61.619938 548.705566,62.367859 
	C579.396484,64.294701 609.517639,69.964317 638.993652,78.557579 
	C692.787354,94.240341 742.153564,118.873497 786.661377,153.086502 
	C813.185181,173.475189 837.741211,196.064850 858.534729,222.198502 
	C890.155823,261.940430 914.938721,305.767273 932.394531,353.607330 
	C946.062683,391.066803 954.584106,429.663940 957.726929,469.385254 
	C958.828735,483.310883 958.755005,497.329529 958.640259,511.746887 
	C909.000122,512.159424 859.937744,512.142151 810.875427,512.095947 
	C793.914429,512.079956 776.953552,511.992004 760.028442,511.593628 
	C760.654968,507.493011 757.752197,504.060608 753.011353,502.654114 
	C752.644775,501.904022 752.311340,501.449677 751.900146,500.532196 
	C751.600830,490.375336 751.379272,480.681641 751.509766,470.911469 
	C755.373047,462.686737 753.477844,458.748383 743.098267,452.796448 
	C742.950378,452.661865 742.812866,452.286316 742.848755,451.925507 
	C740.197144,449.080597 737.509583,446.596466 734.568359,443.995422 
	C733.907471,443.498596 733.500427,443.118774 733.085510,442.360199 
	C732.319763,435.865814 727.544556,431.579865 721.776245,432.094727 
	C718.196289,432.414276 714.648987,433.099457 710.754333,433.652252 
	C709.986877,433.599884 709.552124,433.515778 708.931030,433.106934 
	C707.809326,432.545929 706.874268,432.104004 705.938599,432.102997 
	C668.874939,432.062714 631.811279,432.047852 594.747681,432.118774 
	C593.461243,432.121246 592.176453,433.032715 590.516357,433.600494 
	C589.140076,433.569061 588.138245,433.457642 586.990234,432.996979 
	C586.555237,430.885956 586.042175,429.127380 586.016846,427.361816 
	C585.909729,419.906891 586.019897,412.448486 585.877808,404.994659 
	C585.845642,403.307434 585.121521,401.633423 584.660889,399.512695 
	C584.553467,392.342072 584.500977,385.612091 584.660583,378.599915 
	C584.724609,376.246582 584.576538,374.175385 584.340698,371.637421 
	C584.369507,363.486816 584.486084,355.803009 584.920532,347.925232 
	C585.466003,346.457642 585.886047,345.184875 585.891663,343.910278 
	C585.952332,330.089844 585.828003,316.267334 586.034668,302.449585 
	C586.096497,298.318512 584.727783,296.911346 580.573181,296.946655 
	C560.259888,297.119446 539.944397,297.026337 519.630066,297.112061 
	C518.077209,297.118622 516.527039,297.783295 514.719360,298.185699 
	C514.292725,298.196838 514.122437,298.164368 513.866333,297.905945 
	C513.579041,297.405457 513.309570,297.244843 512.860718,296.727661 
	C512.707397,292.259674 512.625671,288.262238 512.629456,284.264862 
	C512.699646,210.128693 512.780090,135.992538 512.858398,61.856369 
z"/>
<path fill="#249BAF" opacity="1.000000" stroke="none" 
	d="
M512.439026,61.673340 
	C512.780090,135.992538 512.699646,210.128693 512.629456,284.264862 
	C512.625671,288.262238 512.707397,292.259674 512.787842,296.968018 
	C512.829224,297.847717 512.832031,298.016479 512.378967,298.237549 
	C485.758545,298.303955 459.593170,298.430237 433.430298,298.228485 
	C428.725555,298.192200 427.503265,299.650635 427.613525,304.206726 
	C428.609070,345.341797 429.384033,386.482147 430.267944,427.620026 
	C430.403259,433.916718 430.409363,434.053314 424.122833,434.011719 
	C388.463867,433.775848 352.801422,433.752502 317.147156,433.203705 
	C285.408813,432.715210 262.732727,457.951477 266.107147,486.555298 
	C266.477081,489.691467 266.639282,492.876434 266.583496,496.033173 
	C266.487457,501.464630 266.143860,506.891693 265.444031,512.276062 
	C260.654144,512.179260 256.324432,512.083252 251.994690,512.081238 
	C189.705170,512.052551 127.415642,512.036377 65.126122,512.017212 
	C64.867378,507.079956 64.253456,502.131622 64.406715,497.207123 
	C65.518768,461.475403 69.792419,426.176056 78.925720,391.526154 
	C94.163567,333.716766 120.785889,281.574036 156.560471,233.861740 
	C195.110641,182.447678 243.240433,142.480560 300.057220,112.760368 
	C340.343903,91.686874 382.843964,77.046562 427.566284,68.838554 
	C455.487915,63.714027 483.633575,61.239521 512.439026,61.673340 
z"/>
<path fill="#45A462" opacity="1.000000" stroke="none" 
	d="
M759.992615,511.936951 
	C776.953552,511.992004 793.914429,512.079956 810.875427,512.095947 
	C859.937744,512.142151 909.000122,512.159424 958.529785,512.221252 
	C958.652466,525.374329 958.803894,538.529663 957.869202,551.607361 
	C955.193176,589.051147 946.852966,625.336670 933.903442,660.523804 
	C916.026062,709.101074 890.042603,752.998230 856.776245,792.627319 
	C804.444885,854.968079 739.325562,898.972107 663.123962,926.653503 
	C624.749512,940.593445 584.971924,948.716980 544.130615,951.065002 
	C533.830078,951.657288 523.499573,951.728943 512.709351,951.479614 
	C512.205994,908.595947 512.142212,866.272522 512.158508,823.949158 
	C512.169250,796.124146 512.295654,768.299133 512.784424,740.405151 
	C519.854431,740.432312 526.510071,740.592651 533.166199,740.611511 
	C548.476318,740.654907 563.790710,740.431824 579.094360,740.750916 
	C583.749390,740.847900 585.037964,739.599304 585.014465,734.943359 
	C584.779175,688.320801 584.818909,641.696960 584.609741,595.074219 
	C584.590393,590.748291 585.832458,589.124390 590.236877,589.246582 
	C599.215637,589.495850 608.205750,589.382935 617.190857,589.346069 
	C644.819702,589.232544 672.448181,589.036133 700.077087,588.968933 
	C715.504395,588.931396 728.391113,583.569946 739.423401,572.534973 
	C747.097778,564.858643 751.202209,556.357300 751.274536,545.551697 
	C751.349060,534.406921 751.911072,523.265381 752.470764,512.100403 
	C752.681702,512.078369 753.065796,511.898804 753.494141,511.970520 
	C755.945923,512.007141 757.969238,511.972046 759.992615,511.936951 
z"/>
<path fill="#F2C947" opacity="1.000000" stroke="none" 
	d="
M512.370239,740.474121 
	C512.295654,768.299133 512.169250,796.124146 512.158508,823.949158 
	C512.142212,866.272522 512.205994,908.595947 512.270142,951.375732 
	C489.444672,952.236755 466.769806,950.156067 444.191345,946.771301 
	C410.321136,941.693848 377.359650,933.223022 345.549927,920.424988 
	C307.180756,904.987976 271.501038,884.852112 238.513794,859.859680 
	C186.847092,820.714783 146.290543,772.227905 115.546165,715.280579 
	C92.363815,672.340393 77.265701,626.670837 70.238541,578.534668 
	C67.077042,556.878357 66.666557,534.820312 65.066971,512.480896 
	C127.415642,512.036377 189.705170,512.052551 251.994690,512.081238 
	C256.324432,512.083252 260.654144,512.179260 265.510010,512.715881 
	C266.358124,524.327881 266.409546,535.471252 267.056458,546.579956 
	C268.556732,572.341919 290.456879,585.100891 310.842651,588.742126 
	C319.585327,590.303711 328.764343,589.668396 337.742828,589.618652 
	C366.705322,589.458252 395.667450,589.154480 424.627838,588.766357 
	C428.234863,588.718018 429.213654,590.118469 429.177490,593.458435 
	C429.065979,603.751160 429.214783,614.046326 429.185394,624.340393 
	C429.080841,660.970032 429.034973,697.600342 428.713287,734.228210 
	C428.669617,739.201355 430.345093,740.333923 434.996429,740.288086 
	C457.305725,740.068359 479.618164,740.157532 501.929504,740.173889 
	C505.409821,740.176453 508.889984,740.369324 512.370239,740.474121 
z"/>
<path fill="#F7F7F7" opacity="1.000000" stroke="none" 
	d="
M115.586716,215.665222 
	C120.197197,211.947510 126.337921,211.493591 130.495590,214.382736 
	C133.668015,216.587204 136.596603,226.504227 135.268066,230.543594 
	C133.824341,234.933151 129.249329,238.146576 124.662842,237.992554 
	C118.744560,237.793839 113.090805,233.693954 111.976395,227.942001 
	C111.139603,223.622925 111.442619,219.143478 115.586716,215.665222 
z"/>
<path fill="#FCFCFC" opacity="1.000000" stroke="none" 
	d="
M512.784424,740.405151 
	C508.889984,740.369324 505.409821,740.176453 501.929504,740.173889 
	C479.618164,740.157532 457.305725,740.068359 434.996429,740.288086 
	C430.345093,740.333923 428.669617,739.201355 428.713287,734.228210 
	C429.034973,697.600342 429.080841,660.970032 429.185394,624.340393 
	C429.214783,614.046326 429.065979,603.751160 429.177490,593.458435 
	C429.213654,590.118469 428.234863,588.718018 424.627838,588.766357 
	C395.667450,589.154480 366.705322,589.458252 337.742828,589.618652 
	C328.764343,589.668396 319.585327,590.303711 310.842651,588.742126 
	C290.456879,585.100891 268.556732,572.341919 267.056458,546.579956 
	C266.409546,535.471252 266.358124,524.327881 265.970184,512.760437 
	C266.143860,506.891693 266.487457,501.464630 266.583496,496.033173 
	C266.639282,492.876434 266.477081,489.691467 266.107147,486.555298 
	C262.732727,457.951477 285.408813,432.715210 317.147156,433.203705 
	C352.801422,433.752502 388.463867,433.775848 424.122833,434.011719 
	C430.409363,434.053314 430.403259,433.916718 430.267944,427.620026 
	C429.384033,386.482147 428.609070,345.341797 427.613525,304.206726 
	C427.503265,299.650635 428.725555,298.192200 433.430298,298.228485 
	C459.593170,298.430237 485.758545,298.303955 512.661621,298.291016 
	C513.584106,298.238739 513.768127,298.185333 513.952209,298.131897 
	C514.122437,298.164368 514.292725,298.196838 515.072754,298.387512 
	C517.176208,298.578644 518.669983,298.641968 520.163574,298.640015 
	C539.968201,298.613983 559.773499,298.654419 579.576843,298.477661 
	C583.234436,298.445007 584.550842,299.477997 584.437317,303.271698 
	C584.158691,312.584412 584.226440,321.909149 584.255920,331.228760 
	C584.273743,336.859222 584.480652,342.489075 584.602661,348.119202 
	C584.486084,355.803009 584.369507,363.486816 584.081055,371.888550 
	C584.088867,374.698364 584.268677,376.790253 584.448486,378.882111 
	C584.500977,385.612091 584.553467,392.342072 584.457214,399.868195 
	C584.368347,410.398529 584.338989,420.135162 584.604126,429.863770 
	C584.636353,431.046692 586.253723,432.186432 587.136475,433.346222 
	C588.138245,433.457642 589.140076,433.569061 590.971619,433.750519 
	C629.930908,433.837219 668.060425,433.857117 706.189941,433.852051 
	C707.165771,433.851929 708.141541,433.577911 709.117371,433.431641 
	C709.552124,433.515778 709.986877,433.599884 711.019165,433.919556 
	C718.775574,437.016388 725.934448,439.877686 733.093323,442.738953 
	C733.500427,443.118774 733.907471,443.498596 734.668701,444.315704 
	C737.619507,447.264069 740.216187,449.775208 742.812866,452.286316 
	C742.812866,452.286316 742.950378,452.661865 743.122253,453.137115 
	C745.915344,459.404205 748.536560,465.196075 751.157715,470.987946 
	C751.379272,480.681641 751.600830,490.375336 751.686035,500.861877 
	C751.786377,505.143951 752.023132,508.633209 752.259827,512.122437 
	C751.911072,523.265381 751.349060,534.406921 751.274536,545.551697 
	C751.202209,556.357300 747.097778,564.858643 739.423401,572.534973 
	C728.391113,583.569946 715.504395,588.931396 700.077087,588.968933 
	C672.448181,589.036133 644.819702,589.232544 617.190857,589.346069 
	C608.205750,589.382935 599.215637,589.495850 590.236877,589.246582 
	C585.832458,589.124390 584.590393,590.748291 584.609741,595.074219 
	C584.818909,641.696960 584.779175,688.320801 585.014465,734.943359 
	C585.037964,739.599304 583.749390,740.847900 579.094360,740.750916 
	C563.790710,740.431824 548.476318,740.654907 533.166199,740.611511 
	C526.510071,740.592651 519.854431,740.432312 512.784424,740.405151 
z"/>
<path fill="#EA6C6A" opacity="1.000000" stroke="none" 
	d="
M584.920532,347.925232 
	C584.480652,342.489075 584.273743,336.859222 584.255920,331.228760 
	C584.226440,321.909149 584.158691,312.584412 584.437317,303.271698 
	C584.550842,299.477997 583.234436,298.445007 579.576843,298.477661 
	C559.773499,298.654419 539.968201,298.613983 520.163574,298.640015 
	C518.669983,298.641968 517.176208,298.578644 515.329102,298.343872 
	C516.527039,297.783295 518.077209,297.118622 519.630066,297.112061 
	C539.944397,297.026337 560.259888,297.119446 580.573181,296.946655 
	C584.727783,296.911346 586.096497,298.318512 586.034668,302.449585 
	C585.828003,316.267334 585.952332,330.089844 585.891663,343.910278 
	C585.886047,345.184875 585.466003,346.457642 584.920532,347.925232 
z"/>
<path fill="#EA6C6A" opacity="1.000000" stroke="none" 
	d="
M708.931030,433.106903 
	C708.141541,433.577911 707.165771,433.851929 706.189941,433.852051 
	C668.060425,433.857117 629.930908,433.837219 591.346191,433.670532 
	C592.176453,433.032715 593.461243,432.121246 594.747681,432.118774 
	C631.811279,432.047852 668.874939,432.062714 705.938599,432.102997 
	C706.874268,432.104004 707.809326,432.545929 708.931030,433.106903 
z"/>
<path fill="#EA6C6A" opacity="1.000000" stroke="none" 
	d="
M733.085510,442.360199 
	C725.934448,439.877686 718.775574,437.016388 711.351868,433.887817 
	C714.648987,433.099457 718.196289,432.414276 721.776245,432.094727 
	C727.544556,431.579865 732.319763,435.865814 733.085510,442.360199 
z"/>
<path fill="#E96864" opacity="1.000000" stroke="none" 
	d="
M751.509766,470.911469 
	C748.536560,465.196075 745.915344,459.404205 743.270142,453.271729 
	C753.477844,458.748383 755.373047,462.686737 751.509766,470.911469 
z"/>
<path fill="#EA6C6A" opacity="1.000000" stroke="none" 
	d="
M586.990234,432.996979 
	C586.253723,432.186432 584.636353,431.046692 584.604126,429.863770 
	C584.338989,420.135162 584.368347,410.398529 584.512207,400.308838 
	C585.121521,401.633423 585.845642,403.307434 585.877808,404.994659 
	C586.019897,412.448486 585.909729,419.906891 586.016846,427.361816 
	C586.042175,429.127380 586.555237,430.885956 586.990234,432.996979 
z"/>
<path fill="#E95A53" opacity="1.000000" stroke="none" 
	d="
M760.028442,511.593628 
	C757.969238,511.972046 755.945923,512.007141 753.478882,511.528381 
	C753.038269,508.326324 753.041382,505.638092 753.044434,502.949860 
	C757.752197,504.060608 760.654968,507.493011 760.028442,511.593628 
z"/>
<path fill="#EA6C6A" opacity="1.000000" stroke="none" 
	d="
M742.848755,451.925537 
	C740.216187,449.775208 737.619507,447.264069 734.922485,444.432678 
	C737.509583,446.596466 740.197144,449.080597 742.848755,451.925537 
z"/>
<path fill="#E96864" opacity="1.000000" stroke="none" 
	d="
M753.011353,502.654114 
	C753.041382,505.638092 753.038269,508.326324 753.050476,511.456665 
	C753.065796,511.898804 752.681702,512.078369 752.470764,512.100403 
	C752.023132,508.633209 751.786377,505.143951 751.763794,501.325043 
	C752.311340,501.449677 752.644775,501.904022 753.011353,502.654114 
z"/>
<path fill="#EA6C6A" opacity="1.000000" stroke="none" 
	d="
M584.660583,378.599915 
	C584.268677,376.790253 584.088867,374.698364 584.168762,372.355347 
	C584.576538,374.175385 584.724609,376.246582 584.660583,378.599915 
z"/>
<path fill="#EA6C6A" opacity="1.000000" stroke="none" 
	d="
M513.866333,297.905945 
	C513.768127,298.185333 513.584106,298.238739 513.117493,298.238708 
	C512.832031,298.016479 512.829224,297.847717 512.899292,297.438599 
	C513.309570,297.244843 513.579041,297.405457 513.866333,297.905945 
z"/>
</svg>